<svg width="276" height="97" viewBox="0 0 276 97" fill="none" xmlns="http://www.w3.org/2000/svg">
<path d="M229.176 29.0015C229.226 29.3962 229.25 29.7908 229.25 30.1855L229.472 32.4795C229.522 32.8742 229.546 33.2688 229.546 33.6635C232.26 30.0128 235.812 28.1875 240.202 28.1875C242.965 28.1875 245.185 28.7548 246.862 29.8895C248.54 31.0242 249.847 32.5288 250.784 34.4035C252.314 32.3808 254.04 30.8515 255.964 29.8155C257.938 28.7302 260.232 28.1875 262.846 28.1875C265.066 28.1875 266.966 28.5575 268.544 29.2975C270.172 30.0375 271.455 31.0735 272.392 32.4055C273.379 33.7375 274.094 35.2915 274.538 37.0675C274.982 38.7942 275.204 40.6442 275.204 42.6175V67.9995H266.768V45.7255C266.768 44.5415 266.694 43.3575 266.546 42.1735C266.398 40.9895 266.078 39.9288 265.584 38.9915C265.14 38.0048 264.474 37.2155 263.586 36.6235C262.698 35.9822 261.514 35.6615 260.034 35.6615C258.456 35.6615 257.148 36.0562 256.112 36.8455C255.126 37.5855 254.336 38.4982 253.744 39.5835C253.202 40.6688 252.832 41.9022 252.634 43.2835C252.437 44.6155 252.338 45.9475 252.338 47.2795V67.9995H243.976V45.5775C243.976 44.4428 243.902 43.3082 243.754 42.1735C243.656 40.9895 243.384 39.9288 242.94 38.9915C242.496 38.0542 241.83 37.2648 240.942 36.6235C240.104 35.9822 238.92 35.6615 237.39 35.6615C235.812 35.6615 234.48 36.0562 233.394 36.8455C232.358 37.6348 231.544 38.6215 230.952 39.8055C230.36 40.9402 229.966 42.1982 229.768 43.5795C229.571 44.9115 229.472 46.1448 229.472 47.2795V67.9995H221.11V29.0015H229.176Z" fill="white"/>
<path d="M203.575 67.9996V15.6816H212.011V67.9996H203.575Z" fill="white"/>
<path d="M167.9 51.3499C167.999 52.7806 168.295 54.1126 168.788 55.3459C169.281 56.5793 169.947 57.6646 170.786 58.6019C171.674 59.4899 172.735 60.2053 173.968 60.7479C175.251 61.2906 176.731 61.5619 178.408 61.5619C180.184 61.5619 181.812 61.2413 183.292 60.5999C184.772 59.9586 185.857 58.8486 186.548 57.2699H195.206C194.713 59.2433 193.899 60.9453 192.764 62.3759C191.679 63.8066 190.371 64.9906 188.842 65.9279C187.362 66.8159 185.709 67.4819 183.884 67.9259C182.108 68.3206 180.209 68.5179 178.186 68.5179C175.078 68.5179 172.34 68.0493 169.972 67.1119C167.653 66.1746 165.705 64.8179 164.126 63.0419C162.547 61.2659 161.363 59.1693 160.574 56.7519C159.834 54.2853 159.464 51.5226 159.464 48.4639C159.464 45.5039 159.883 42.8153 160.722 40.3979C161.561 37.9313 162.769 35.8099 164.348 34.0339C165.976 32.2579 167.925 30.8766 170.194 29.8899C172.463 28.8539 175.053 28.3359 177.964 28.3359C181.023 28.3359 183.662 28.8539 185.882 29.8899C188.102 30.8766 189.952 32.2333 191.432 33.9599C192.961 35.6866 194.096 37.7093 194.836 40.0279C195.576 42.3466 195.946 44.8626 195.946 47.5759C195.946 48.8586 195.872 50.1166 195.724 51.3499H167.9ZM187.732 44.9859C187.633 42.0259 186.696 39.7319 184.92 38.1039C183.144 36.4759 180.85 35.6619 178.038 35.6619C176.459 35.6619 175.078 35.9086 173.894 36.4019C172.71 36.8953 171.699 37.5613 170.86 38.3999C170.071 39.2386 169.429 40.2253 168.936 41.3599C168.443 42.4946 168.122 43.7033 167.974 44.9859H187.732Z" fill="white"/>
<path d="M116.701 67.9999V29.0019H124.767L125.211 34.4039C126.642 32.3813 128.418 30.8766 130.539 29.8899C132.71 28.8539 135.004 28.3359 137.421 28.3359C140.184 28.3359 142.503 28.8046 144.377 29.7419C146.301 30.6793 147.855 31.9619 149.039 33.5899C150.273 35.2179 151.136 37.1419 151.629 39.3619C152.172 41.5819 152.443 43.9993 152.443 46.6139V67.9999H144.007V47.8719C144.007 46.1946 143.884 44.6406 143.637 43.2099C143.44 41.7793 143.021 40.5213 142.379 39.4359C141.738 38.3013 140.825 37.4133 139.641 36.7719C138.507 36.1306 137.027 35.8099 135.201 35.8099C133.475 35.8099 131.896 36.2293 130.465 37.0679C129.084 37.9066 127.999 38.9919 127.209 40.3239C126.469 41.6559 125.927 43.1359 125.581 44.7639C125.285 46.3919 125.137 47.9459 125.137 49.4259V67.9999H116.701Z" fill="white"/>
<path d="M80.8278 97L80.8609 8.06955L72.7913 0H0V88.9304L8.06955 97H80.8278ZM14.6178 88.4674L40.4139 55.4616L66.21 88.4674H14.6178ZM8.56563 52.7828H31.6498L8.56563 82.3161V52.7828ZM8.56563 14.6839L31.6498 44.2172H8.56563V14.6839ZM66.2431 8.56563L40.447 41.5714L14.6178 8.56563H66.2431ZM72.2953 44.2172H49.211L72.2953 14.6839V44.2172ZM72.2953 82.3161L49.211 52.7828H72.2953V82.3161Z" fill="white"/>
</svg>
